<svg width="52" height="43" viewBox="0 0 52 43" fill="none" xmlns="http://www.w3.org/2000/svg">
<path d="M23.5827 32.9669C23.5827 30.3569 22.8627 28.1369 21.4227 26.3069C19.2327 23.5469 15.0027 23.2169 12.5427 23.7569C11.5227 17.9669 16.4427 10.5869 22.8027 7.40689L17.9127 0.566895C8.31266 5.12689 -1.10734 15.6269 0.512662 28.8569C1.53266 37.2269 6.36266 42.7469 13.2027 42.7469C16.2027 42.7469 18.6927 41.8769 20.6427 40.1069C22.6227 38.3369 23.5827 35.9669 23.5827 32.9669ZM51.8727 32.9669C51.8727 30.3569 51.1527 28.1369 49.7127 26.3069C47.5227 23.5469 43.2927 23.2169 40.8327 23.7569C39.8127 17.9669 44.7327 10.5869 51.0927 7.40689L46.2027 0.566895C36.6027 5.12689 27.1827 15.6269 28.8027 28.8569C29.8227 37.2269 34.6527 42.7469 41.4927 42.7469C44.4927 42.7469 46.9827 41.8769 48.9327 40.1069C50.9127 38.3369 51.8727 35.9669 51.8727 32.9669Z" fill="#DDE6F3"/>
</svg>
